# xmcd CD database file
# Copyright (C) 1993-1998 Ti Kan
# 
# Track frame offsets:
#     200
#     28512
#     44992
#     60387
#     77940
#     92632
#     115932
#     127152
#     139360
#     162137
#     170865
#     184065
#     204080
#     219872
# 
# Disc length: 3141 seconds
# 
# Revision: 1
# Processed by: cddbd v1.4b41PL1 Copyright (c) Steve Scherf et al.
# Submitted via: DiscPlay 4.0.4
# 
DISCID=ca0c430e
DTITLE=BB King - Original Blues
DYEAR=1900
DGENRE=
TTITLE0=Sweet Sixteen
TTITLE1=The Other Night
TTITLE2=It's my own fault
TTITLE3=Evil Child
TTITLE4=Mr. Pawnbroker
TTITLE5=You Done Lost Your Good Thing Now
TTITLE6=Catfish Blues
TTITLE7=Paying the Cost to be the Boss
TTITLE8=Every Day I have the Blues
TTITLE9=A New Way of Driving
TTITLE10=Walkin' and Cryin'
TTITLE11=How Blue Can You Get
TTITLE12=The Letter
TTITLE13=Long Nights
EXTD=
EXTT0=
EXTT1=
EXTT2=
EXTT3=
EXTT4=
EXTT5=
EXTT6=
EXTT7=
EXTT8=
EXTT9=
EXTT10=
EXTT11=
EXTT12=
EXTT13=
PLAYORDER=
